<svg width="30" height="30" viewBox="0 0 30 30" fill="none" xmlns="http://www.w3.org/2000/svg">
<path fill-rule="evenodd" clip-rule="evenodd" d="M20.8838 19.7139V5.97815H17.4351V19.7139C17.4351 22.6882 20.0431 25.1032 23.2558 25.1032C26.468 25.1032 29.0764 22.6882 29.0764 19.7139V14.5399H25.6267V19.7139C25.6267 20.7845 24.564 21.6541 23.2554 21.6541C21.9465 21.6541 20.8838 20.7845 20.8838 19.7139ZM11.3986 10.29V19.7139C11.3986 20.7845 10.3359 21.6541 9.02695 21.6541C7.71836 21.6541 6.65565 20.7845 6.65565 19.7139V15.587H3.2063V19.7139C3.2063 22.6882 5.81467 25.1032 9.02695 25.1032C12.2396 25.1032 14.8476 22.6882 14.8476 19.7139V10.29H11.3986V10.29Z" fill="white"/>
</svg>
