<svg width="30" height="30" viewBox="0 0 30 30" fill="none" xmlns="http://www.w3.org/2000/svg">
<path fill-rule="evenodd" clip-rule="evenodd" d="M21.8792 5.83328H20.5042C20.5242 5.91277 20.535 5.99442 20.5357 6.07605V14.695C20.5335 15.2113 20.1461 15.6446 19.6333 15.7033V24.1667H18.0595V15.7033C17.5467 15.6446 17.1593 15.2113 17.1564 14.695V6.07605C17.1571 5.99441 17.1679 5.91277 17.1886 5.83328H12.8116C12.8323 5.91277 12.8431 5.99442 12.8438 6.07605V14.695C12.8409 15.2113 12.4535 15.6446 11.9407 15.7033V24.1667H10.3604V15.7033C9.84767 15.6446 9.45951 15.2113 9.45737 14.695V6.07605C9.45808 5.99441 9.46882 5.91277 9.48959 5.83328H8.11459C7.28815 5.83543 6.4961 6.16558 5.91238 6.75067C5.32872 7.33576 5.00072 8.12782 5 8.95434V21.0458C5.00072 21.8729 5.32943 22.6664 5.91453 23.2522C6.50033 23.8373 7.29382 24.166 8.12095 24.1667H21.8791C22.7062 24.166 23.4997 23.8373 24.0855 23.2522C24.6706 22.6664 24.9993 21.8729 25 21.0458V8.95434C24.9993 8.12719 24.6706 7.33371 24.0855 6.74792C23.4997 6.16283 22.7062 5.83411 21.8792 5.83328Z" fill="url(#paint0_linear)"/>
<defs>
<linearGradient id="paint0_linear" x1="12.8" y1="5.28328" x2="22.5084" y2="27.0325" gradientUnits="userSpaceOnUse">
<stop stop-color="white"/>
<stop offset="1" stop-color="white"/>
</linearGradient>
</defs>
</svg>
